<?xml version="1.0" encoding="utf-8"?>
<!-- Generator: Adobe Illustrator 16.0.0, SVG Export Plug-In . SVG Version: 6.00 Build 0)  -->
<!DOCTYPE svg PUBLIC "-//W3C//DTD SVG 1.1//EN" "http://www.w3.org/Graphics/SVG/1.1/DTD/svg11.dtd">
<svg version="1.1" id="Layer_1" xmlns="http://www.w3.org/2000/svg" xmlns:xlink="http://www.w3.org/1999/xlink" x="0px" y="0px"
	 width="75.667px" height="75.667px" viewBox="0 0 75.667 75.667" enable-background="new 0 0 75.667 75.667" xml:space="preserve">
<circle opacity="0.4" fill="#16161D" cx="37.833" cy="37.833" r="37.833"/>
<circle opacity="0.7" fill="#FFFFFF" cx="37.833" cy="37.834" r="34.501"/>
<circle opacity="0.3" fill="#16161D" cx="37.999" cy="37.833" r="30.751"/>
<path fill="#FFFFFF" d="M37.951,26.715c2.167,0,3.924-1.758,3.924-3.924c0-2.169-1.757-3.921-3.924-3.921
	c-2.166,0-3.923,1.752-3.923,3.921C34.028,24.957,35.785,26.715,37.951,26.715z"/>
<polygon fill="#FFFFFF" points="40.616,31.946 40.616,30.572 40.616,29.332 32.768,29.332 32.768,31.946 35.383,31.946 
	35.383,54.181 32.768,54.181 32.768,56.797 43.231,56.797 43.231,54.181 40.616,54.181 "/>
</svg>
